<svg width="24" height="24" viewBox="0 0 24 24" fill="none" xmlns="http://www.w3.org/2000/svg">
<path d="M4.96317 12.32C4.96317 8.43375 8.11359 5.28333 11.9998 5.28333C15.8861 5.28333 19.0365 8.43375 19.0365 12.32C19.0365 16.2062 15.8861 19.3567 11.9998 19.3567C8.11359 19.3567 4.96317 16.2062 4.96317 12.32ZM11.9998 4.83666C7.86691 4.83666 4.5165 8.18707 4.5165 12.32C4.5165 16.4529 7.8669 19.8033 11.9998 19.8033C16.1328 19.8033 19.4832 16.4529 19.4832 12.32C19.4832 8.18707 16.1328 4.83666 11.9998 4.83666Z" fill="#CCCCCC" stroke="#CCCCCC" stroke-width="0.3"/>
<path d="M1.29667 12.32C1.29667 6.40869 6.08871 1.61664 12 1.61664C17.9113 1.61664 22.7033 6.40869 22.7033 12.32C22.7033 18.2313 17.9113 23.0233 12 23.0233C6.08871 23.0233 1.29667 18.2313 1.29667 12.32ZM12 1.16998C5.84203 1.16998 0.850001 6.162 0.85 12.32C0.849999 18.4779 5.84202 23.47 12 23.47C18.158 23.47 23.15 18.4779 23.15 12.32C23.15 6.162 18.158 1.16998 12 1.16998Z" fill="#CCCCCC" stroke="#CCCCCC" stroke-width="0.3"/>
<path d="M12.0004 20.9733C12.8104 20.9733 13.467 20.3167 13.467 19.5067C13.467 18.6967 12.8104 18.04 12.0004 18.04C11.1903 18.04 10.5337 18.6967 10.5337 19.5067C10.5337 20.3167 11.1903 20.9733 12.0004 20.9733Z" fill="url(#paint0_linear_54_70)"/>
<path d="M11.9996 2.93332C12.8097 2.93332 13.4663 2.27667 13.4663 1.46665C13.4663 0.656635 12.8097 -1.38149e-05 11.9996 -1.39565e-05C11.1896 -1.40981e-05 10.533 0.656635 10.533 1.46665C10.533 2.27667 11.1896 2.93332 11.9996 2.93332Z" fill="url(#paint1_linear_54_70)"/>
<path d="M12.0002 8.65335C9.97512 8.65335 8.3335 10.295 8.3335 12.32C8.3335 14.3451 9.97512 15.9867 12.0002 15.9867C14.0252 15.9867 15.6668 14.3451 15.6668 12.32C15.6668 10.295 14.0252 8.65335 12.0002 8.65335Z" fill="url(#paint2_radial_54_70)"/>
<defs>
<linearGradient id="paint0_linear_54_70" x1="12.0004" y1="18.04" x2="12.0004" y2="20.9733" gradientUnits="userSpaceOnUse">
<stop stop-color="#397FD0"/>
<stop offset="1" stop-color="#111111"/>
</linearGradient>
<linearGradient id="paint1_linear_54_70" x1="11.9996" y1="2.93332" x2="11.9996" y2="-1.39565e-05" gradientUnits="userSpaceOnUse">
<stop stop-color="#D05439"/>
<stop offset="1" stop-color="#111111"/>
</linearGradient>
<radialGradient id="paint2_radial_54_70" cx="0" cy="0" r="1" gradientUnits="userSpaceOnUse" gradientTransform="translate(12.0002 12.32) rotate(90) scale(3.66667)">
<stop stop-color="white"/>
<stop offset="1" stop-color="#D0AF39"/>
</radialGradient>
</defs>
</svg>
